<svg xmlns="http://www.w3.org/2000/svg" viewBox="0 0 1080 1080" width="1080" height="1080">
<defs>
  <filter id="avatar-filter" x="-20%" y="-20%" width="140%" height="140%" filterUnits="objectBoundingBox" primitiveUnits="userSpaceOnUse" color-interpolation-filters="linearRGB">
    <feMorphology operator="dilate" radius="20 20" in="SourceAlpha" result="morphology"/>
    <feFlood flood-color="#ffffff" flood-opacity="1" result="flood"/>
    <feComposite in="flood" in2="morphology" operator="in" result="composite"/>
    <feMerge result="merge">
      <feMergeNode in="composite" result="mergeNode"/>
      <feMergeNode in="SourceGraphic" result="mergeNode1"/>
    </feMerge>
  </filter>
</defs>
<g id="notion-avatar" filter="url(#avatar-filter)">
<g id="notion-avatar-face" fill="#ffffff" data-part="face-10">
<g id="Face/-10" stroke="none" stroke-width="1"  fill-rule="evenodd" stroke-linecap="round" stroke-linejoin="round">
        <path d="M532,379 C664.54834,379 772,486.45166 772,619 C772,751.54834 684.54834,899 592,899 C535.13263,899 351.668898,801.612202 313.752775,718.980575 L313.322946,718.989282 L312,719 C267.81722,719 232,683.18278 232,639 C232,599.134956 261.158843,566.080325 299.312086,560.00055 C325.599297,455.979213 419.809919,379 532,379 Z M295.858895,624.545187 L304.141105,655.454813" id="Path" stroke="#000000" stroke-width="24"></path>
    </g>
</g>

<g id="notion-avatar-nose" data-part="nose-12">
<g id="Nose/ 12">
<path id="Path" fill-rule="evenodd" clip-rule="evenodd" d="M648.516 575C648.516 575 659.222 580.698 667 589C673.643 596.091 676.296 606.295 680 617C683.578 627.342 695.556 636.07 695 644C692.29 682.626 644 684.16 644 684.16C644 684.16 696 684 700 643.855C701.005 633.771 688.451 626.971 684 617C679.168 606.177 677 594 669 588C660.881 581.911 648.516 575 648.516 575Z" fill="black" stroke="black" stroke-width="6" stroke-linecap="round" stroke-linejoin="round"/>
</g>
</g>

<g id="notion-avatar-mouth" data-part="mouth-1">
<g id="Mouth/-1" stroke="none" stroke-width="1" fill="none" fill-rule="evenodd" stroke-linecap="round" stroke-linejoin="round">
        <path d="M549,759 C575.12979,773.666667 603.12979,781 633,781 C662.87021,781 682.87021,773.666667 693,759" id="Path" stroke="#000000" stroke-width="16"></path>
    </g>
</g>

<g id="notion-avatar-eyes" data-part="eyes-12">
<g id="Eyes/ 12">
<g id="Group 2">
<path id="Path" fill-rule="evenodd" clip-rule="evenodd" d="M534 528.156C534 528.156 562.569 554.438 586.169 549.907C609.769 545.375 599.832 520 599.832 520C599.832 520 614.738 546.282 593.622 554.438C572.506 562.595 534 528.156 534 528.156Z" fill="black" stroke="black" stroke-width="6" stroke-linecap="round" stroke-linejoin="round"/>
<path id="Path_2" fill-rule="evenodd" clip-rule="evenodd" d="M672 528.156C672 528.156 700.569 554.438 724.169 549.907C747.769 545.375 737.832 520 737.832 520C737.832 520 752.738 546.282 731.622 554.438C710.506 562.595 672 528.156 672 528.156Z" fill="black" stroke="black" stroke-width="6" stroke-linecap="round" stroke-linejoin="round"/>
</g>
</g>
</g>

<g id="notion-avatar-eyebrows" data-part="eyebrows-13">
<g id="Eyebrows/ 13">
<g id="Group">
<path id="Path" fill-rule="evenodd" clip-rule="evenodd" d="M662.391 482.335C665.391 477.335 722.391 459.335 742.391 462.335C762.391 465.335 791.391 491.335 791.391 491.335C791.391 491.335 764.391 480.335 739.391 480.335C714.391 480.335 679.391 498.335 679.391 498.335C679.391 498.335 659.391 487.335 662.391 482.335Z" fill="black" stroke="black" stroke-width="4" stroke-linecap="round" stroke-linejoin="round"/>
<path id="Path_2" fill-rule="evenodd" clip-rule="evenodd" d="M615 482.335C612 477.335 555 459.335 535 462.335C515 465.335 486 491.335 486 491.335C486 491.335 513 480.335 538 480.335C563 480.335 598 498.335 598 498.335C598 498.335 618 487.335 615 482.335Z" fill="black" stroke="black" stroke-width="4" stroke-linecap="round" stroke-linejoin="round"/>
</g>
</g>
</g>

<g id="notion-avatar-glasses" data-part="glasses-5">
<g id="Glasses/-5" stroke="none" stroke-width="1" fill="none" fill-rule="evenodd" stroke-linecap="round" stroke-linejoin="round">
        <g id="Group" transform="translate(289.000000, 500.000000)" stroke="#000000">
            <path d="M339.818182,40.2109589 C338.074175,42.9080712 336.862054,47.8943725 336.181818,55.169863 L327.454545,55.169863 C324.545455,28.1013699 305.393939,14.0922374 270,13.1424658 C240.424242,11.2429224 222.727273,23.1150685 216.909091,48.7589041 L205.272727,48.7589041 L190,33.8 L190,10.2931507 C222.484848,2.22009132 249.151515,-1.10410959 270,0.320547945 C285.225486,1.36096427 303.25963,5.13798521 324.62746,9.93254373 L332.545455,11.7178082 C336.214681,12.54746 342.032863,13.4972317 350,14.5671233 L352.073632,14.2846662 C358.984501,13.3293325 364.111473,12.4737132 367.454545,11.7178082 L376.341511,9.71531602 C397.286215,5.02415827 415.005203,1.34520038 430,0.320547945 C450.64,-1.08986301 476.9824,2.15408219 509.0272,10.0523836 L510,10.2931507 L510,33.8 L494.727273,48.7589041 L483.090909,48.7589041 C477.272727,23.1150685 459.575758,11.2429224 430,13.1424658 C394.96,14.0827397 375.8392,27.8224932 372.6376,54.361726 L372.545455,55.169863 L363.818182,55.169863 L363.730382,54.2723496 C363.036013,47.4828217 361.853158,42.7956915 360.181818,40.2109589 C358.482529,37.5830034 355.216835,35.4868176 350.384736,33.9224017 L350,33.8 C344.956128,35.3768603 341.562189,37.5138466 339.818182,40.2109589 Z" id="Path" stroke-width="4" fill="#000000"></path>
            <path d="M216.909091,48.4383562 C216.909091,85.4794521 234.606061,104 270,104 C305.393939,104 324.545455,87.6164384 327.454545,54.8493151" id="Path" stroke-width="6"></path>
            <path d="M372.545455,48.4383562 C372.545455,85.4794521 390.242424,104 425.636364,104 C461.030303,104 480.181818,87.6164384 483.090909,54.8493151" id="Path" stroke-width="6" transform="translate(427.818182, 76.219178) scale(-1, 1) translate(-427.818182, -76.219178) "></path>
            <polygon id="Path" stroke-width="4" fill="#000000" points="199 9 4 41 0 50 199 30"></polygon>
        </g>
    </g>
</g>

<g id="notion-avatar-hair" data-part="hair-51">
<g id="Hairstyle/ 51">
<path id="Path" fill-rule="evenodd" clip-rule="evenodd" d="M382.001 274C429.761 244.346 494.39 241.407 575.889 265.181L577.14 264.65C597.829 255.949 630.441 246.059 677.001 272C747.001 311 754.98 383.101 781.001 387C799.46 389.766 805.56 435.498 822.001 477C828.104 492.404 867.001 502 867.001 502L822.001 521C822.001 521 831.927 531.092 845.001 539C856.33 545.852 876.001 570 876.001 570C876.001 570 833.793 577.748 828.001 590C824.892 596.577 861.406 604.103 872.001 648C886.001 706 839.99 786.03 868.953 803.495C882.072 811.406 916.953 833.495 916.953 833.495C916.953 833.495 864.775 885.051 840.953 878.495C804.135 868.363 756.953 833.495 756.953 833.495C756.953 833.495 768.409 700.557 764.001 625C760.916 572.103 746.184 514.788 732.001 493C697.561 440.091 627.001 387 540.001 387C473.08 387 468.925 425.463 468.925 425.463C465.119 446.727 465.116 469.946 450.001 502C423.775 557.618 331.05 595.505 331.05 624.505C331.05 653.505 340.05 654.505 340.05 670.505C340.05 686.505 328.02 694.862 331.05 716.505C333.07 730.933 344.021 804.095 360.001 825C332.475 852.867 306.808 870.534 283.001 878C259.195 885.466 228.528 885.466 191.001 878C200.307 869.655 206.974 861.989 211.001 855L211.393 854.308C215.33 847.232 219.867 835.462 225.001 819C218.698 825.705 212.365 830.371 206.001 833C199.637 835.628 190.637 837.295 179.001 838L181.003 835.564C186.363 829.017 190.521 823.735 193.477 819.717L194.434 818.408C199.252 811.846 203.628 806.7 201.001 796C198.297 784.981 163.573 686.372 165.05 653.505C166.035 631.593 176.701 599.259 197.05 556.505C193.586 560.378 189.586 563.378 185.05 565.505C180.513 567.631 173.847 569.631 165.05 571.505L166.29 570.4C177.121 560.712 184.708 552.746 189.05 546.505C193.556 540.027 196.222 533.027 197.05 525.505C190.855 527.314 185.855 527.98 182.05 527.505C178.244 527.029 172.578 525.029 165.05 521.505L166.345 520.889C174.864 516.82 181.099 513.358 185.05 510.505C189.198 507.508 194.532 502.508 201.05 495.505L202.221 492.969C221.276 451.815 236.552 423.661 248.05 408.505C280.199 366.126 314.722 340.408 344.05 318.505C360.26 306.398 368.717 282.248 382.001 274Z" fill="black" stroke="black" stroke-width="12" stroke-linecap="round" stroke-linejoin="round"/>
</g>
</g>

<g id="notion-avatar-accessories" data-part="accessories-0">
<g id="Accessories/-0" stroke="none" stroke-width="1" fill="none" fill-rule="evenodd"></g>
</g>

<g id="notion-avatar-details" data-part="details-0">
<g id="Details/-0" stroke="none" stroke-width="1" fill="none" fill-rule="evenodd"></g>
</g>

<g id="notion-avatar-beard" data-part="beard-0">
<g id="Beard/-0" stroke="none" stroke-width="1" fill="none" fill-rule="evenodd"></g>
</g>
</g>
</svg>
